<?xml version="1.0" encoding="UTF-8"?><svg id="Layer_2" xmlns="http://www.w3.org/2000/svg" xmlns:xlink="http://www.w3.org/1999/xlink" viewBox="0 0 227.96 43.17"><defs><style>.cls-1{fill:url(#linear-gradient);}.cls-2{fill:#fff;}.cls-3{filter:url(#drop-shadow-1);}</style><linearGradient id="linear-gradient" x1="0" y1="21.58" x2="43.17" y2="21.58" gradientUnits="userSpaceOnUse"><stop offset="0" stop-color="#3a36ff"/><stop offset="1" stop-color="#086cd9"/></linearGradient><filter id="drop-shadow-1" filterUnits="userSpaceOnUse"><feOffset dx="7" dy="7"/><feGaussianBlur result="blur" stdDeviation="5"/><feFlood flood-color="#000" flood-opacity=".21"/><feComposite in2="blur" operator="in"/><feComposite in="SourceGraphic"/></filter></defs><g id="Layer_1-2"><rect class="cls-1" x="0" y="0" width="43.17" height="43.17" rx="4.8" ry="4.8"/><g id="Group_107" class="cls-3"><g id="Artboard_5"><path id="Path_40" class="cls-2" d="m35.07,5.59c0,1.62-.42,2.05-2.22,2.06l-19.73.08.05,10.18,16.6-.07c-.05,1.78-.55,2.43-2.02,2.44l-17.06.07-.07-14.66,24.45-.1Z"/><path id="Path_41" class="cls-2" d="m29.83,25.28l-16.6.07.05,10.08,19.83-.08c1.69,0,2.2.51,2.04,2.13l-24.37.1-.07-14.58c.44,0,.88-.06,1.33-.06l14.91-.18c2.03-.02,2.76.54,2.88,2.52Z"/><path id="Path_42" class="cls-2" d="m33.09,32.65l-17.02.07-.03-5.56h2.15s.02,3.47.02,3.47l12.58-.05c1.88,0,2.07.16,2.29,2.08Z"/><path id="Path_43" class="cls-2" d="m15.91,16.03l-.03-5.48,17.11-.07c.11,1.53-.45,2.06-2.17,2.07-3.68.02-7.35.1-11.03.05-1.34,0-1.75.41-1.58,1.57,0,.04,0,.08,0,.11q-.06,1.92-2.3,1.75Z"/></g></g><path class="cls-2" d="m60.72,15.08v5.38h7.88v2.2h-7.88v5.36h8.25v2.2h-10.47V12.9h10.28v2.18h-8.07Z"/><path class="cls-2" d="m76.18,20.03c-1.83,0-3.14,1.71-3.14,4.08v6.12h-2.22v-12.23h2.22v2.28c.47-1.41,1.87-2.43,3.51-2.43,1.97,0,3.49,1,4.33,2.67.8-1.69,2.2-2.67,3.96-2.67,3.3,0,5.4,2.47,5.4,6.24v6.14h-2.22v-6.14c0-2.47-1.27-4.06-3.26-4.06-1.81,0-3.12,1.71-3.12,4.06v6.14h-2.22v-6.14c0-2.47-1.27-4.06-3.24-4.06Z"/><path class="cls-2" d="m93.5,13.02c.78,0,1.29.53,1.29,1.3s-.51,1.33-1.29,1.33c-.82,0-1.33-.53-1.33-1.33s.51-1.3,1.33-1.3Zm-1.11,17.21v-12.23h2.22v12.23h-2.22Z"/><path class="cls-2" d="m96.86,30.23V12.9h2.22v17.33h-2.22Z"/><path class="cls-2" d="m111.25,27.94c-.55,1.43-2.3,2.41-4.15,2.41-3.55,0-5.89-2.49-5.89-6.26s2.34-6.24,5.89-6.24c1.81,0,3.59.98,4.15,2.43v-7.38h2.22v17.33h-2.22v-2.28Zm-3.9.2c2.32,0,3.92-1.61,3.9-4.04,0-2.41-1.64-4.08-3.9-4.08s-3.92,1.61-3.92,4.06,1.62,4.06,3.92,4.06Z"/><path class="cls-2" d="m125.37,27.94c-.55,1.43-2.32,2.41-4.17,2.41-3.53,0-5.87-2.49-5.87-6.26s2.32-6.24,5.87-6.24c1.83,0,3.61.98,4.17,2.43v-2.28h2.2v12.23h-2.2v-2.28Zm-3.9.2c2.3,0,3.9-1.61,3.9-4.04s-1.64-4.08-3.92-4.08-3.9,1.61-3.9,4.06,1.6,4.06,3.92,4.06Z"/><path class="cls-2" d="m136.94,25.03c.14,1.92,1.95,3.22,4.04,3.22s3.82-1.14,3.84-2.85c.02-2-1.79-2.61-3.74-3.08-2.69-.65-5.81-1.08-5.81-4.85.02-3.18,2.57-4.67,5.66-4.67s5.6,1.61,5.68,4.77h-2.2c-.14-1.73-1.66-2.67-3.49-2.67s-3.45.88-3.47,2.53c-.02,1.98,1.85,2.3,4,2.81,2.63.61,5.58,1.61,5.56,5.14-.02,2.87-2.61,4.95-6.03,4.97-3.3,0-6.14-1.98-6.26-5.32h2.2Z"/><path class="cls-2" d="m154.57,17.85c3.39,0,5.99,2.71,5.99,6.24s-2.61,6.26-5.99,6.26-6.03-2.71-6.03-6.26,2.63-6.24,6.03-6.24Zm-3.82,6.24c0,2.32,1.66,4.06,3.82,4.06s3.8-1.73,3.8-4.06-1.64-4.06-3.8-4.06-3.82,1.75-3.82,4.06Z"/><path class="cls-2" d="m162.49,30.23V12.9h2.22v17.33h-2.22Z"/><path class="cls-2" d="m172.18,28.17c1.83,0,3.14-1.69,3.14-4.06v-6.12h2.22v12.23h-2.22v-2.28c-.47,1.41-1.87,2.43-3.51,2.43-3.12,0-5.09-2.47-5.09-6.24v-6.14h2.22v6.14c0,2.47,1.27,4.04,3.24,4.04Z"/><path class="cls-2" d="m183.28,15.41v2.59h2.89v2.08h-2.89v5.91c0,1.45.6,2.08,1.99,2.08h.9v2.16h-1.11c-2.81,0-4-1.18-4-4.12v-6.03h-1.91v-2.08h1.91l.55-2.59h1.66Z"/><path class="cls-2" d="m189.3,13.02c.78,0,1.29.53,1.29,1.3s-.51,1.33-1.29,1.33c-.82,0-1.33-.53-1.33-1.33s.51-1.3,1.33-1.3Zm-1.11,17.21v-12.23h2.22v12.23h-2.22Z"/><path class="cls-2" d="m198.31,17.85c3.39,0,5.99,2.71,5.99,6.24s-2.61,6.26-5.99,6.26-6.03-2.71-6.03-6.26,2.63-6.24,6.03-6.24Zm-3.82,6.24c0,2.32,1.66,4.06,3.82,4.06s3.8-1.73,3.8-4.06-1.64-4.06-3.8-4.06-3.82,1.75-3.82,4.06Z"/><path class="cls-2" d="m211.5,20.03c-1.83,0-3.14,1.71-3.14,4.08v6.12h-2.22v-12.23h2.22v2.28c.47-1.41,1.87-2.43,3.51-2.43,3.12,0,5.09,2.47,5.09,6.24v6.14h-2.22v-6.14c0-2.47-1.27-4.06-3.24-4.06Z"/><path class="cls-2" d="m220.84,26.33c.06,1.18,1.25,2.12,2.67,2.14,1.31.02,2.26-.59,2.26-1.57,0-1.16-.94-1.65-2.83-2.16-1.91-.53-3.78-1.24-3.78-3.49,0-2.1,1.89-3.4,4.31-3.4s4.06,1.45,4.27,3.65h-1.99c-.14-1.02-1.09-1.77-2.3-1.77-1.17-.02-2.07.61-2.09,1.49,0,1.2,1.5,1.55,2.34,1.77,1.87.47,4.27,1.02,4.27,3.89,0,2.02-1.93,3.47-4.52,3.47-2.32,0-4.64-1.53-4.7-4.02h2.09Z"/></g></svg>